# xmcd
#
# Track frame offsets:
#	150
#	16312
#	31088
#	42711
#	57720
#	70640
#	85469
#	100918
#	115551
#	130675
#	142079
#	150267
#	165218
#	179940
#	195822
#
# Disc length: 2772 seconds
# Revision: 0
# Processed by: cddbd v1.5.2PL0 Copyright (c) Steve Scherf et al.
# Submitted via: dBpowerAMP V12.0
#
DISCID=c10ad20f
DTITLE=Edgar Loudermilk - My Big Chance Tomorrow
DYEAR=2013
DGENRE=Country
TTITLE0=Town of Shady Green
TTITLE1=That Little Girl of Mine in Carolina
TTITLE2=Man in the Hole
TTITLE3=In the Arms of Anyone But Me
TTITLE4=She's Got All That We Need
TTITLE5=Chances
TTITLE6=Out Looking For You
TTITLE7=To Uncle Sam and Mr Wall Street
TTITLE8=Wash Out My Heart
TTITLE9=Two Hearts After One
TTITLE10=Hobo's Time
TTITLE11=I Never Knew You At All
TTITLE12=What You Do To Me
TTITLE13=Blue Lonesome Blue
TTITLE14=We Are Travelers Here
EXTD=
EXTT0=
EXTT1=
EXTT2=
EXTT3=
EXTT4=
EXTT5=
EXTT6=
EXTT7=
EXTT8=
EXTT9=
EXTT10=
EXTT11=
EXTT12=
EXTT13=
EXTT14=
PLAYORDER=
